# xmcd
#
# Track frame offsets: 
#        150
#        18148
#        33226
#        48222
#        65172
#        87912
#        103596
#        121640
#        143860
#        156800
#        173471
#        186102
#        200758
#        215853
#        228725
#        245399
#        260314
#        273601
#        292364
#        313213
#
# Disc length: 4410 seconds
#
# Revision: 1
# Processed by: cddbd v1.5.2PL0 Copyright (c) Steve Scherf et al.
# Submitted via: ExactAudioCopyFreeDBPlugin 1.0
#
DISCID=2a113814
DTITLE=Various Artist - Kultur SPIEGEL my generation COUNTRY and CHICKS
DYEAR=2009
DGENRE=Country
TTITLE0=Dixie Chicks - NOT READY TO MAKE NICE
TTITLE1=Mary Chapin Carpenter - PASSIONATE KISSES
TTITLE2=Brad Paisley - ME NEITHER
TTITLE3=The Wilkinsons - FAST CAR
TTITLE4=Alan Jackson - WHERE WERE YOU
TTITLE5=Pam Tillis - BAND IN THE WINDOW
TTITLE6=Lonestar - AMAZED
TTITLE7=LeAnn Rimes - HOW DO I LIVE
TTITLE8=Martina McBride - I LOVE YOU
TTITLE9=Kenny Rogers - THE LAST TEN YEARS
TTITLE10=Clint Black - KILLIN' TIME
TTITLE11=Dolly Parton - MORE WHERE THAT CAME FROM
TTITLE12=Big and Rich - SAVE A HORSE (RIDE A COWBOY)
TTITLE13=Jessica Simpson - COME ON OVER
TTITLE14=Gretchen Wilson - REDNECK WOMAN
TTITLE15=Billy Ray Cyrus - BURN DOWN THE TRAILER PARK
TTITLE16=Roy Rivers - ALL CAUGHT UP
TTITLE17=Billy Gilman - ONE VOICE
TTITLE18=Alabama featuring 'NSync - GOD MUST HAVE SPENT A LITTLE MORE 
TTITLE18=TIME ON YOU
TTITLE19=Blake Shelton - HOME SWEET HOME
EXTD=
EXTT0=
EXTT1=
EXTT2=
EXTT3=
EXTT4=
EXTT5=
EXTT6=
EXTT7=
EXTT8=
EXTT9=
EXTT10=
EXTT11=
EXTT12=
EXTT13=
EXTT14=
EXTT15=
EXTT16=
EXTT17=
EXTT18=
EXTT19=
PLAYORDER=
